<svg width="21" height="24" viewBox="0 0 21 24" fill="none" xmlns="http://www.w3.org/2000/svg">
<path d="M10.271 11.5609C11.9254 11.5609 13.3581 10.9912 14.5286 9.86733C15.6991 8.74362 16.2925 7.36868 16.2925 5.78025C16.2925 4.19237 15.6991 2.81725 14.5284 1.69317C13.3577 0.569639 11.9253 0 10.271 0C8.61639 0 7.18416 0.569639 6.01362 1.69335C4.84308 2.81707 4.24951 4.19218 4.24951 5.78025C4.24951 7.36868 4.84308 8.7438 6.01381 9.86751C7.18454 10.991 8.61696 11.5609 10.271 11.5609Z" fill="white"/>
<path fill-rule="evenodd" clip-rule="evenodd" d="M0.0122499 20.2384C0.00408708 20.1188 0 19.9968 0 19.8724C0 19.391 0.0167847 18.9144 0.0499725 18.4552C0.0837326 17.9864 0.152016 17.4761 0.252533 16.9382C0.354004 16.3954 0.484657 15.8826 0.640869 15.4136C0.802612 14.9286 1.02234 14.4501 1.29375 13.9914C1.57528 13.5156 1.90659 13.1012 2.27795 12.7599C2.66685 12.4026 3.14274 12.1157 3.69244 11.9068C4.24042 11.6984 4.84772 11.5928 5.49774 11.5928C5.75294 11.5928 5.99995 11.6933 6.47602 11.9912C6.77376 12.1774 7.11708 12.3898 7.49645 12.6226C7.82356 12.8229 8.26721 13.0106 8.81462 13.1803C9.34982 13.3464 9.89246 13.4306 10.4282 13.4306C10.964 13.4306 11.5068 13.3464 12.0415 13.1803C12.5895 13.0104 13.0331 12.8227 13.3606 12.6224C13.7436 12.3874 14.0867 12.175 14.3801 11.9914C14.8567 11.6935 15.1035 11.593 15.3587 11.593C16.0086 11.593 16.6161 11.6984 17.1642 11.9066C17.7143 12.1159 18.19 12.4028 18.5785 12.7597C18.9501 13.1008 19.2812 13.5154 19.5631 13.9914C19.8347 14.4501 20.0544 14.9288 20.216 15.4134C20.3724 15.8824 20.503 16.3954 20.6045 16.9382C20.705 17.4768 20.7733 17.987 20.8071 18.4546C20.8405 18.9117 20.8574 19.3886 20.8576 19.8722C20.8576 20.0399 20.8502 20.2034 20.8354 20.3625C18.0071 22.638 14.4126 23.9998 10.5 23.9998C6.51682 23.9998 2.86329 22.5884 0.0122499 20.2384Z" fill="white"/>
</svg>
