<svg width="15" height="14" viewBox="0 0 15 14" fill="none" xmlns="http://www.w3.org/2000/svg">
<path d="M12.7288 6.35613C12.7288 2.85613 9.87264 0 6.37264 0C2.87264 0 0 2.85613 0 6.35613C0 9.85613 2.85613 12.7123 6.35613 12.7123C7.875 12.7123 9.26179 12.184 10.3679 11.2925L13.0755 14L14.0165 13.059L11.2925 10.3679C12.184 9.2783 12.7288 7.875 12.7288 6.35613ZM6.35613 11.408C3.58255 11.408 1.32075 9.14623 1.32075 6.37264C1.32075 3.59906 3.58255 1.33726 6.35613 1.33726C9.12972 1.33726 11.3915 3.59906 11.3915 6.37264C11.3915 9.14623 9.14623 11.408 6.35613 11.408Z" fill="black"/>
</svg>
