<svg width="24" height="24" viewBox="0 0 24 24" fill="none" xmlns="http://www.w3.org/2000/svg">
<path d="M20.75 0.75H3.25C1.875 0.75 0.75 1.875 0.75 3.25V20.75C0.75 22.125 1.875 23.25 3.25 23.25H20.75C22.125 23.25 23.25 22.125 23.25 20.75V3.25C23.25 1.875 22.125 0.75 20.75 0.75ZM10.3875 17.3625C9.9 17.85 9.1125 17.85 8.625 17.3625L4.1375 12.875C3.65 12.3875 3.65 11.6 4.1375 11.1125C4.625 10.625 5.4125 10.625 5.9 11.1125L9.5 14.7125L18.1 6.1125C18.5875 5.625 19.375 5.625 19.8625 6.1125C20.35 6.6 20.35 7.3875 19.8625 7.875L10.3875 17.3625Z" fill="white"/>
</svg>
